<svg width="4000" height="4000" viewBox="0 0 4000 4000" fill="none" xmlns="http://www.w3.org/2000/svg">
<circle cx="2000" cy="2000" r="2000" fill="white"/>
<path d="M414.635 2160V1215.41H558.725V2160H414.635ZM606.755 2160V1215.41H750.845V2160H606.755ZM798.875 2160V1215.41H894.935V2160H798.875ZM565.129 2299.29H683.603C723.094 2299.29 752.446 2309.43 771.658 2329.71C791.937 2348.92 802.077 2374 802.077 2404.95C802.077 2434.84 792.471 2459.39 773.259 2478.6C754.047 2497.81 725.229 2507.42 686.805 2507.42H608.356V2670.72H565.129V2299.29ZM682.002 2470.59C708.685 2470.59 727.897 2464.72 739.638 2452.98C752.446 2442.31 758.85 2426.83 758.85 2406.55C758.85 2386.27 752.446 2370.26 739.638 2358.52C726.83 2345.72 708.151 2339.31 683.603 2339.31H608.356V2470.59H682.002ZM943.09 2160V1215.41H1039.15V2160H943.09ZM1183.24 2160V1215.41H1231.27V2160H1183.24ZM1279.3 2160V1215.41H1423.39V2160H1279.3ZM1091.98 2299.29H1200.85C1243.54 2299.29 1274.5 2308.89 1293.71 2328.11C1313.99 2346.25 1324.13 2372.4 1324.13 2406.55C1324.13 2427.9 1317.19 2448.18 1303.31 2467.39C1289.44 2486.6 1271.29 2499.41 1248.88 2505.82L1335.33 2670.72H1288.91L1205.65 2507.42H1133.61V2670.72H1091.98V2299.29ZM1205.65 2470.59C1231.27 2470.59 1250.48 2464.72 1263.29 2452.98C1275.03 2442.31 1280.9 2426.83 1280.9 2406.55C1280.9 2386.27 1275.03 2369.73 1263.29 2356.92C1250.48 2345.18 1231.27 2339.31 1205.65 2339.31H1133.61V2470.59H1205.65ZM1471.54 2160V1215.41H1519.57V2160H1471.54ZM1663.66 2160V1215.41H1807.75V2160H1663.66ZM1855.78 2160V1215.41H1951.84V2160H1855.78ZM1735.71 2677.12C1693.02 2677.12 1660.46 2660.58 1638.05 2627.49C1614.57 2594.4 1602.83 2547.44 1602.83 2486.6C1602.83 2427.9 1614.57 2381.47 1638.05 2347.32C1661.53 2314.23 1694.08 2297.69 1735.71 2297.69C1777.34 2297.69 1809.89 2314.23 1833.37 2347.32C1856.85 2381.47 1868.59 2427.9 1868.59 2486.6C1868.59 2547.44 1856.85 2594.4 1833.37 2627.49C1810.96 2660.58 1778.4 2677.12 1735.71 2677.12ZM1735.71 2640.3C1764.53 2640.3 1786.41 2627.49 1801.35 2601.88C1817.36 2575.19 1825.37 2536.77 1825.37 2486.6C1825.37 2439.64 1817.36 2402.28 1801.35 2374.53C1785.34 2347.85 1763.46 2334.51 1735.71 2334.51C1707.96 2334.51 1686.08 2347.85 1670.07 2374.53C1654.06 2402.28 1646.05 2439.64 1646.05 2486.6C1646.05 2536.77 1653.53 2575.19 1668.47 2601.88C1684.48 2627.49 1706.89 2640.3 1735.71 2640.3ZM2000 2160V1215.41H2096.06V2160H2000ZM2144.09 2160V1215.41H2288.18V2160H2144.09ZM2336.21 2160V1215.41H2384.24V2160H2336.21ZM2262.56 2677.12C2214.53 2677.12 2175.58 2661.11 2145.69 2629.09L2168.11 2592.27L2169.71 2587.47L2174.51 2589.07C2174.51 2590.14 2175.04 2592.27 2176.11 2595.47C2176.11 2597.61 2177.18 2600.28 2179.31 2603.48C2180.38 2605.61 2182.51 2607.75 2185.72 2609.88C2208.13 2629.09 2235.88 2638.7 2268.97 2638.7C2290.31 2638.7 2308.46 2632.83 2323.4 2621.09C2338.34 2608.28 2345.82 2593.34 2345.82 2576.26C2345.82 2564.52 2343.15 2554.38 2337.81 2545.84C2333.54 2538.37 2325.54 2530.9 2313.8 2523.43C2302.06 2515.96 2283.91 2506.88 2259.36 2496.21C2223.07 2482.33 2196.92 2466.32 2180.91 2448.18C2165.97 2430.04 2158.5 2409.76 2158.5 2387.34C2158.5 2359.59 2168.64 2337.18 2188.92 2320.1C2209.2 2303.02 2236.41 2294.48 2270.57 2294.48C2290.85 2294.48 2310.06 2298.75 2328.21 2307.29C2345.28 2315.83 2360.76 2327.04 2374.63 2340.91L2347.42 2377.74L2344.22 2374.53C2344.22 2373.47 2343.68 2371.87 2342.61 2369.73C2342.61 2366.53 2341.55 2363.86 2339.41 2361.73C2338.34 2358.52 2336.21 2355.86 2333.01 2353.72C2324.47 2345.18 2314.33 2338.78 2302.59 2334.51C2291.92 2331.31 2279.11 2329.71 2264.17 2329.71C2244.95 2329.71 2230.01 2335.04 2219.34 2345.72C2207.6 2356.39 2201.73 2369.2 2201.73 2384.14C2201.73 2395.88 2203.86 2406.02 2208.13 2414.56C2213.47 2423.1 2222.54 2431.1 2235.35 2438.57C2248.16 2447.11 2267.37 2456.19 2292.98 2465.79C2328.21 2480.73 2352.75 2495.68 2366.63 2510.62C2379.44 2526.63 2385.84 2546.37 2385.84 2569.86C2385.84 2588 2381.57 2605.08 2373.03 2621.09C2363.43 2637.1 2349.55 2650.44 2331.41 2661.11C2312.2 2671.79 2289.25 2677.12 2262.56 2677.12ZM2528.46 2160V1215.41H2624.52V2160H2528.46ZM2672.55 2160V1215.41H2816.64V2160H2672.55ZM2960.73 2160V1215.41H3008.76V2160H2960.73ZM2767 2336.11H2662.94V2299.29H2919.1V2336.11H2810.23V2670.72H2767V2336.11ZM3056.91 2160V1215.41H3104.94V2160H3056.91ZM3249.03 2160V1215.41H3393.12V2160H3249.03ZM3441.15 2160V1215.41H3537.21V2160H3441.15ZM3321.08 2677.12C3278.38 2677.12 3245.83 2660.58 3223.41 2627.49C3199.93 2594.4 3188.19 2547.44 3188.19 2486.6C3188.19 2427.9 3199.93 2381.47 3223.41 2347.32C3246.9 2314.23 3279.45 2297.69 3321.08 2297.69C3362.7 2297.69 3395.25 2314.23 3418.74 2347.32C3442.22 2381.47 3453.96 2427.9 3453.96 2486.6C3453.96 2547.44 3442.22 2594.4 3418.74 2627.49C3396.32 2660.58 3363.77 2677.12 3321.08 2677.12ZM3321.08 2640.3C3349.89 2640.3 3371.77 2627.49 3386.72 2601.88C3402.73 2575.19 3410.73 2536.77 3410.73 2486.6C3410.73 2439.64 3402.73 2402.28 3386.72 2374.53C3370.71 2347.85 3348.83 2334.51 3321.08 2334.51C3293.32 2334.51 3271.44 2347.85 3255.43 2374.53C3239.42 2402.28 3231.42 2439.64 3231.42 2486.6C3231.42 2536.77 3238.89 2575.19 3253.83 2601.88C3269.84 2627.49 3292.26 2640.3 3321.08 2640.3Z" fill="#202020"/>
</svg>
