<svg width="1952" height="913" viewBox="0 0 1952 913" fill="none" xmlns="http://www.w3.org/2000/svg">
<path d="M0.765625 590V-3.33786e-05H90.7656V590H0.765625ZM120.766 590V-3.33786e-05H210.766V590H120.766ZM240.766 590V-3.33786e-05H300.766V590H240.766ZM94.7656 677H168.766C193.432 677 211.766 683.333 223.766 696C236.432 708 242.766 723.667 242.766 743C242.766 761.667 236.766 777 224.766 789C212.766 801 194.766 807 170.766 807H121.766V909H94.7656V677ZM167.766 784C184.432 784 196.432 780.333 203.766 773C211.766 766.333 215.766 756.667 215.766 744C215.766 731.333 211.766 721.333 203.766 714C195.766 706 184.099 702 168.766 702H121.766V784H167.766ZM330.844 590V-3.33786e-05H390.844V590H330.844ZM480.844 590V-3.33786e-05H510.844V590H480.844ZM540.844 590V-3.33786e-05H630.844V590H540.844ZM423.844 677H491.844C518.51 677 537.844 683 549.844 695C562.51 706.333 568.844 722.667 568.844 744C568.844 757.333 564.51 770 555.844 782C547.177 794 535.844 802 521.844 806L575.844 909H546.844L494.844 807H449.844V909H423.844V677ZM494.844 784C510.844 784 522.844 780.333 530.844 773C538.177 766.333 541.844 756.667 541.844 744C541.844 731.333 538.177 721 530.844 713C522.844 705.667 510.844 702 494.844 702H449.844V784H494.844ZM660.922 590V-3.33786e-05H690.922V590H660.922ZM780.922 590V-3.33786e-05H870.922V590H780.922ZM900.922 590V-3.33786e-05H960.922V590H900.922ZM825.922 913C799.255 913 778.922 902.667 764.922 882C750.255 861.333 742.922 832 742.922 794C742.922 757.333 750.255 728.333 764.922 707C779.589 686.333 799.922 676 825.922 676C851.922 676 872.255 686.333 886.922 707C901.589 728.333 908.922 757.333 908.922 794C908.922 832 901.589 861.333 886.922 882C872.922 902.667 852.589 913 825.922 913ZM825.922 890C843.922 890 857.589 882 866.922 866C876.922 849.333 881.922 825.333 881.922 794C881.922 764.667 876.922 741.333 866.922 724C856.922 707.333 843.255 699 825.922 699C808.589 699 794.922 707.333 784.922 724C774.922 741.333 769.922 764.667 769.922 794C769.922 825.333 774.589 849.333 783.922 866C793.922 882 807.922 890 825.922 890ZM991 590V-3.33786e-05H1051V590H991ZM1081 590V-3.33786e-05H1171V590H1081ZM1201 590V-3.33786e-05H1231V590H1201ZM1155 913C1125 913 1100.67 903 1082 883L1096 860L1097 857L1100 858C1100 858.667 1100.33 860 1101 862C1101 863.333 1101.67 865 1103 867C1103.67 868.333 1105 869.667 1107 871C1121 883 1138.33 889 1159 889C1172.33 889 1183.67 885.333 1193 878C1202.33 870 1207 860.667 1207 850C1207 842.667 1205.33 836.333 1202 831C1199.33 826.333 1194.33 821.667 1187 817C1179.67 812.333 1168.33 806.667 1153 800C1130.33 791.333 1114 781.333 1104 770C1094.67 758.667 1090 746 1090 732C1090 714.667 1096.33 700.667 1109 690C1121.67 679.333 1138.67 674 1160 674C1172.67 674 1184.67 676.667 1196 682C1206.67 687.333 1216.33 694.333 1225 703L1208 726L1206 724C1206 723.333 1205.67 722.333 1205 721C1205 719 1204.33 717.333 1203 716C1202.33 714 1201 712.333 1199 711C1193.67 705.667 1187.33 701.667 1180 699C1173.33 697 1165.33 696 1156 696C1144 696 1134.67 699.333 1128 706C1120.67 712.667 1117 720.667 1117 730C1117 737.333 1118.33 743.667 1121 749C1124.33 754.333 1130 759.333 1138 764C1146 769.333 1158 775 1174 781C1196 790.333 1211.33 799.667 1220 809C1228 819 1232 831.333 1232 846C1232 857.333 1229.33 868 1224 878C1218 888 1209.33 896.333 1198 903C1186 909.667 1171.67 913 1155 913ZM1321.08 590V-3.33786e-05H1381.08V590H1321.08ZM1411.08 590V-3.33786e-05H1501.08V590H1411.08ZM1591.08 590V-3.33786e-05H1621.08V590H1591.08ZM1470.08 700H1405.08V677H1565.08V700H1497.08V909H1470.08V700ZM1651.16 590V-3.33786e-05H1681.16V590H1651.16ZM1771.16 590V-3.33786e-05H1861.16V590H1771.16ZM1891.16 590V-3.33786e-05H1951.16V590H1891.16ZM1816.16 913C1789.49 913 1769.16 902.667 1755.16 882C1740.49 861.333 1733.16 832 1733.16 794C1733.16 757.333 1740.49 728.333 1755.16 707C1769.82 686.333 1790.16 676 1816.16 676C1842.16 676 1862.49 686.333 1877.16 707C1891.82 728.333 1899.16 757.333 1899.16 794C1899.16 832 1891.82 861.333 1877.16 882C1863.16 902.667 1842.82 913 1816.16 913ZM1816.16 890C1834.16 890 1847.82 882 1857.16 866C1867.16 849.333 1872.16 825.333 1872.16 794C1872.16 764.667 1867.16 741.333 1857.16 724C1847.16 707.333 1833.49 699 1816.16 699C1798.82 699 1785.16 707.333 1775.16 724C1765.16 741.333 1760.16 764.667 1760.16 794C1760.16 825.333 1764.82 849.333 1774.16 866C1784.16 882 1798.16 890 1816.16 890Z" fill="#F0F0F0"/>
</svg>
